<svg xmlns="http://www.w3.org/2000/svg" xmlns:xlink="http://www.w3.org/1999/xlink" width="194" zoomAndPan="magnify" viewBox="0 0 145.5 48" height="64" preserveAspectRatio="xMidYMid meet" version="1.0"><defs><filter x="0%" y="0%" width="100%" height="100%" id="27a3f30cf4"><feColorMatrix values="0 0 0 0 1 0 0 0 0 1 0 0 0 0 1 0 0 0 1 0" color-interpolation-filters="sRGB"/></filter><g/><clipPath id="93606c3ac2"><path d="M 124 4 L 143.769531 4 L 143.769531 19 L 124 19 Z M 124 4 " clip-rule="nonzero"/></clipPath><mask id="9d43e99587"><g filter="url(#27a3f30cf4)"><rect x="-14.55" width="174.6" fill="#000000" y="-4.8" height="57.6" fill-opacity="0.33"/></g></mask><clipPath id="9c1e4ce7cd"><path d="M 1.003906 0.71875 L 19.769531 0.71875 L 19.769531 14.6875 L 1.003906 14.6875 Z M 1.003906 0.71875 " clip-rule="nonzero"/></clipPath><clipPath id="b0c37d2732"><rect x="0" width="20" y="0" height="15"/></clipPath><clipPath id="f18d0bff1a"><path d="M 139 6 L 143.769531 6 L 143.769531 21 L 139 21 Z M 139 6 " clip-rule="nonzero"/></clipPath></defs><g clip-path="url(#93606c3ac2)"><g mask="url(#9d43e99587)"><g transform="matrix(1, 0, 0, 1, 124, 4)"><g clip-path="url(#b0c37d2732)"><g clip-path="url(#9c1e4ce7cd)"><path fill="#235cdf" d="M 1.003906 0.71875 L 28.097656 0.71875 L 28.097656 14.6875 L 1.003906 14.6875 Z M 1.003906 0.71875 " fill-opacity="1" fill-rule="nonzero"/></g></g></g></g></g><path stroke-linecap="butt" transform="matrix(0.00860052, -0.729836, 0.737167, 0.00868691, 72.00984, 35.988894)" fill="none" stroke-linejoin="miter" d="M 0.00144662 0.500638 L 42.428521 0.498448 " stroke="#000000" stroke-width="1" stroke-opacity="1" stroke-miterlimit="4"/><g fill="#000000" fill-opacity="1"><g transform="translate(0.269994, 34.39487)"><g><path d="M 8.515625 0 L 3.546875 0 L 3.546875 -27.34375 L 10.625 -27.34375 L 17.546875 -7.234375 L 17.9375 -7.234375 L 24.828125 -27.34375 L 31.734375 -27.34375 L 31.734375 0 L 26.609375 0 L 26.609375 -18.078125 L 26.140625 -18.140625 L 19.8125 0 L 15.296875 0 L 8.984375 -18.140625 L 8.515625 -18.078125 Z M 8.515625 0 "/></g></g></g><g fill="#000000" fill-opacity="1"><g transform="translate(21.902639, 34.363054)"><g><path d="M 21.234375 -17.078125 L 21.234375 -27.375 L 26.625 -27.375 L 26.625 0 L 21.234375 0 L 21.234375 -12.46875 L 8.96875 -12.46875 L 8.96875 0 L 3.5625 0 L 3.5625 -27.375 L 8.96875 -27.375 L 8.96875 -17.078125 Z M 21.234375 -17.078125 "/></g></g></g><g fill="#000000" fill-opacity="1"><g transform="translate(39.130422, 34.043059)"><g><path d="M 8.515625 0 L 3.546875 0 L 3.546875 -27.34375 L 10.625 -27.34375 L 17.546875 -7.234375 L 17.9375 -7.234375 L 24.828125 -27.34375 L 31.734375 -27.34375 L 31.734375 0 L 26.609375 0 L 26.609375 -18.078125 L 26.140625 -18.140625 L 19.8125 0 L 15.296875 0 L 8.984375 -18.140625 L 8.515625 -18.078125 Z M 8.515625 0 "/></g></g></g><g fill="#000000" fill-opacity="1"><g transform="translate(74.531049, 33.642917)"><g><path d="M 6.265625 -5.046875 L 6.265625 -8.09375 L 7.859375 -8.09375 L 7.859375 0 L 6.265625 0 L 6.265625 -3.6875 L 2.65625 -3.6875 L 2.65625 0 L 1.046875 0 L 1.046875 -8.09375 L 2.65625 -8.09375 L 2.65625 -5.046875 Z M 6.265625 -5.046875 "/></g></g></g><g fill="#000000" fill-opacity="1"><g transform="translate(83.452725, 33.642917)"><g><path d="M 2.375 0.109375 C 1.988281 0.109375 1.648438 0.0390625 1.359375 -0.09375 C 1.066406 -0.238281 0.84375 -0.453125 0.6875 -0.734375 C 0.539062 -1.015625 0.46875 -1.347656 0.46875 -1.734375 C 0.46875 -2.097656 0.539062 -2.398438 0.6875 -2.640625 C 0.84375 -2.890625 1.082031 -3.09375 1.40625 -3.25 C 1.738281 -3.40625 2.164062 -3.523438 2.6875 -3.609375 C 3.050781 -3.671875 3.328125 -3.734375 3.515625 -3.796875 C 3.710938 -3.867188 3.84375 -3.945312 3.90625 -4.03125 C 3.96875 -4.125 4 -4.238281 4 -4.375 C 4 -4.570312 3.929688 -4.722656 3.796875 -4.828125 C 3.660156 -4.929688 3.4375 -4.984375 3.125 -4.984375 C 2.78125 -4.984375 2.453125 -4.90625 2.140625 -4.75 C 1.835938 -4.601562 1.578125 -4.40625 1.359375 -4.15625 L 1.25 -4.15625 L 0.609375 -5.125 C 0.910156 -5.46875 1.285156 -5.734375 1.734375 -5.921875 C 2.179688 -6.117188 2.671875 -6.21875 3.203125 -6.21875 C 4.003906 -6.21875 4.585938 -6.046875 4.953125 -5.703125 C 5.316406 -5.359375 5.5 -4.875 5.5 -4.25 L 5.5 -1.59375 C 5.5 -1.320312 5.617188 -1.1875 5.859375 -1.1875 C 5.941406 -1.1875 6.03125 -1.203125 6.125 -1.234375 L 6.203125 -1.21875 L 6.3125 -0.140625 C 6.226562 -0.0859375 6.109375 -0.0390625 5.953125 0 C 5.804688 0.03125 5.640625 0.046875 5.453125 0.046875 C 5.085938 0.046875 4.800781 -0.0195312 4.59375 -0.15625 C 4.394531 -0.300781 4.253906 -0.523438 4.171875 -0.828125 L 4.046875 -0.828125 C 3.742188 -0.203125 3.1875 0.109375 2.375 0.109375 Z M 2.859375 -1.03125 C 3.210938 -1.03125 3.492188 -1.148438 3.703125 -1.390625 C 3.921875 -1.628906 4.03125 -1.957031 4.03125 -2.375 L 4.03125 -3 L 3.921875 -3.015625 C 3.828125 -2.941406 3.707031 -2.878906 3.5625 -2.828125 C 3.414062 -2.785156 3.203125 -2.738281 2.921875 -2.6875 C 2.585938 -2.632812 2.347656 -2.539062 2.203125 -2.40625 C 2.054688 -2.269531 1.984375 -2.078125 1.984375 -1.828125 C 1.984375 -1.566406 2.0625 -1.367188 2.21875 -1.234375 C 2.375 -1.097656 2.585938 -1.03125 2.859375 -1.03125 Z M 2.859375 -1.03125 "/></g></g></g><g fill="#000000" fill-opacity="1"><g transform="translate(89.885404, 33.642917)"><g><path d="M 2.859375 0.109375 C 2.441406 0.109375 2.054688 0.0625 1.703125 -0.03125 C 1.359375 -0.125 1.0625 -0.253906 0.8125 -0.421875 C 0.570312 -0.597656 0.394531 -0.796875 0.28125 -1.015625 L 1.125 -1.9375 L 1.25 -1.9375 C 1.445312 -1.664062 1.679688 -1.460938 1.953125 -1.328125 C 2.234375 -1.191406 2.535156 -1.125 2.859375 -1.125 C 3.160156 -1.125 3.382812 -1.175781 3.53125 -1.28125 C 3.6875 -1.382812 3.765625 -1.539062 3.765625 -1.75 C 3.765625 -1.894531 3.707031 -2.019531 3.59375 -2.125 C 3.488281 -2.238281 3.316406 -2.320312 3.078125 -2.375 L 2.265625 -2.578125 C 1.660156 -2.710938 1.21875 -2.925781 0.9375 -3.21875 C 0.664062 -3.519531 0.53125 -3.898438 0.53125 -4.359375 C 0.53125 -4.742188 0.625 -5.078125 0.8125 -5.359375 C 1.007812 -5.640625 1.28125 -5.851562 1.625 -6 C 1.976562 -6.144531 2.390625 -6.21875 2.859375 -6.21875 C 3.410156 -6.21875 3.867188 -6.132812 4.234375 -5.96875 C 4.597656 -5.8125 4.878906 -5.601562 5.078125 -5.34375 L 4.265625 -4.453125 L 4.15625 -4.453125 C 3.976562 -4.648438 3.785156 -4.789062 3.578125 -4.875 C 3.367188 -4.96875 3.128906 -5.015625 2.859375 -5.015625 C 2.253906 -5.015625 1.953125 -4.828125 1.953125 -4.453125 C 1.953125 -4.285156 2.007812 -4.148438 2.125 -4.046875 C 2.238281 -3.953125 2.4375 -3.875 2.71875 -3.8125 L 3.46875 -3.65625 C 4.09375 -3.519531 4.546875 -3.304688 4.828125 -3.015625 C 5.117188 -2.722656 5.265625 -2.328125 5.265625 -1.828125 C 5.265625 -1.441406 5.164062 -1.097656 4.96875 -0.796875 C 4.78125 -0.503906 4.503906 -0.28125 4.140625 -0.125 C 3.773438 0.03125 3.347656 0.109375 2.859375 0.109375 Z M 2.859375 0.109375 "/></g></g></g><g fill="#000000" fill-opacity="1"><g transform="translate(95.510542, 33.642917)"><g><path d="M 2.375 0.109375 C 1.988281 0.109375 1.648438 0.0390625 1.359375 -0.09375 C 1.066406 -0.238281 0.84375 -0.453125 0.6875 -0.734375 C 0.539062 -1.015625 0.46875 -1.347656 0.46875 -1.734375 C 0.46875 -2.097656 0.539062 -2.398438 0.6875 -2.640625 C 0.84375 -2.890625 1.082031 -3.09375 1.40625 -3.25 C 1.738281 -3.40625 2.164062 -3.523438 2.6875 -3.609375 C 3.050781 -3.671875 3.328125 -3.734375 3.515625 -3.796875 C 3.710938 -3.867188 3.84375 -3.945312 3.90625 -4.03125 C 3.96875 -4.125 4 -4.238281 4 -4.375 C 4 -4.570312 3.929688 -4.722656 3.796875 -4.828125 C 3.660156 -4.929688 3.4375 -4.984375 3.125 -4.984375 C 2.78125 -4.984375 2.453125 -4.90625 2.140625 -4.75 C 1.835938 -4.601562 1.578125 -4.40625 1.359375 -4.15625 L 1.25 -4.15625 L 0.609375 -5.125 C 0.910156 -5.46875 1.285156 -5.734375 1.734375 -5.921875 C 2.179688 -6.117188 2.671875 -6.21875 3.203125 -6.21875 C 4.003906 -6.21875 4.585938 -6.046875 4.953125 -5.703125 C 5.316406 -5.359375 5.5 -4.875 5.5 -4.25 L 5.5 -1.59375 C 5.5 -1.320312 5.617188 -1.1875 5.859375 -1.1875 C 5.941406 -1.1875 6.03125 -1.203125 6.125 -1.234375 L 6.203125 -1.21875 L 6.3125 -0.140625 C 6.226562 -0.0859375 6.109375 -0.0390625 5.953125 0 C 5.804688 0.03125 5.640625 0.046875 5.453125 0.046875 C 5.085938 0.046875 4.800781 -0.0195312 4.59375 -0.15625 C 4.394531 -0.300781 4.253906 -0.523438 4.171875 -0.828125 L 4.046875 -0.828125 C 3.742188 -0.203125 3.1875 0.109375 2.375 0.109375 Z M 2.859375 -1.03125 C 3.210938 -1.03125 3.492188 -1.148438 3.703125 -1.390625 C 3.921875 -1.628906 4.03125 -1.957031 4.03125 -2.375 L 4.03125 -3 L 3.921875 -3.015625 C 3.828125 -2.941406 3.707031 -2.878906 3.5625 -2.828125 C 3.414062 -2.785156 3.203125 -2.738281 2.921875 -2.6875 C 2.585938 -2.632812 2.347656 -2.539062 2.203125 -2.40625 C 2.054688 -2.269531 1.984375 -2.078125 1.984375 -1.828125 C 1.984375 -1.566406 2.0625 -1.367188 2.21875 -1.234375 C 2.375 -1.097656 2.585938 -1.03125 2.859375 -1.03125 Z M 2.859375 -1.03125 "/></g></g></g><g fill="#000000" fill-opacity="1"><g transform="translate(101.943221, 33.642917)"><g><path d="M 0.875 0 L 0.875 -6.09375 L 2.34375 -6.09375 L 2.34375 -5.203125 L 2.46875 -5.171875 C 2.84375 -5.867188 3.457031 -6.21875 4.3125 -6.21875 C 5.019531 -6.21875 5.535156 -6.023438 5.859375 -5.640625 C 6.191406 -5.253906 6.359375 -4.695312 6.359375 -3.96875 L 6.359375 0 L 4.828125 0 L 4.828125 -3.78125 C 4.828125 -4.1875 4.742188 -4.476562 4.578125 -4.65625 C 4.421875 -4.832031 4.164062 -4.921875 3.8125 -4.921875 C 3.363281 -4.921875 3.015625 -4.78125 2.765625 -4.5 C 2.523438 -4.21875 2.40625 -3.769531 2.40625 -3.15625 L 2.40625 0 Z M 0.875 0 "/></g></g></g><g fill="#000000" fill-opacity="1"><g transform="translate(109.089409, 33.642917)"><g/></g></g><g fill="#000000" fill-opacity="1"><g transform="translate(111.760936, 33.642917)"><g><path d="M 2.515625 0 L 1.046875 0 L 1.046875 -8.09375 L 3.140625 -8.09375 L 5.1875 -2.140625 L 5.296875 -2.140625 L 7.34375 -8.09375 L 9.375 -8.09375 L 9.375 0 L 7.859375 0 L 7.859375 -5.34375 L 7.734375 -5.359375 L 5.859375 0 L 4.53125 0 L 2.65625 -5.359375 L 2.515625 -5.34375 Z M 2.515625 0 "/></g></g></g><g fill="#000000" fill-opacity="1"><g transform="translate(122.198136, 33.642917)"><g><path d="M 3.546875 0.109375 C 2.953125 0.109375 2.425781 -0.0078125 1.96875 -0.25 C 1.519531 -0.5 1.171875 -0.859375 0.921875 -1.328125 C 0.671875 -1.804688 0.546875 -2.378906 0.546875 -3.046875 C 0.546875 -3.710938 0.671875 -4.285156 0.921875 -4.765625 C 1.171875 -5.242188 1.519531 -5.601562 1.96875 -5.84375 C 2.425781 -6.09375 2.953125 -6.21875 3.546875 -6.21875 C 4.140625 -6.21875 4.660156 -6.09375 5.109375 -5.84375 C 5.566406 -5.601562 5.921875 -5.242188 6.171875 -4.765625 C 6.421875 -4.285156 6.546875 -3.710938 6.546875 -3.046875 C 6.546875 -2.378906 6.421875 -1.804688 6.171875 -1.328125 C 5.921875 -0.859375 5.566406 -0.5 5.109375 -0.25 C 4.660156 -0.0078125 4.140625 0.109375 3.546875 0.109375 Z M 3.546875 -1.1875 C 4.492188 -1.1875 4.96875 -1.804688 4.96875 -3.046875 C 4.96875 -3.691406 4.84375 -4.164062 4.59375 -4.46875 C 4.351562 -4.769531 4.003906 -4.921875 3.546875 -4.921875 C 2.597656 -4.921875 2.125 -4.296875 2.125 -3.046875 C 2.125 -1.804688 2.597656 -1.1875 3.546875 -1.1875 Z M 3.546875 -1.1875 "/></g></g></g><g fill="#000000" fill-opacity="1"><g transform="translate(129.289013, 33.642917)"><g><path d="M 3.546875 0.109375 C 2.953125 0.109375 2.425781 -0.0078125 1.96875 -0.25 C 1.519531 -0.5 1.171875 -0.859375 0.921875 -1.328125 C 0.671875 -1.804688 0.546875 -2.378906 0.546875 -3.046875 C 0.546875 -3.710938 0.671875 -4.285156 0.921875 -4.765625 C 1.171875 -5.242188 1.519531 -5.601562 1.96875 -5.84375 C 2.425781 -6.09375 2.953125 -6.21875 3.546875 -6.21875 C 4.140625 -6.21875 4.660156 -6.09375 5.109375 -5.84375 C 5.566406 -5.601562 5.921875 -5.242188 6.171875 -4.765625 C 6.421875 -4.285156 6.546875 -3.710938 6.546875 -3.046875 C 6.546875 -2.378906 6.421875 -1.804688 6.171875 -1.328125 C 5.921875 -0.859375 5.566406 -0.5 5.109375 -0.25 C 4.660156 -0.0078125 4.140625 0.109375 3.546875 0.109375 Z M 3.546875 -1.1875 C 4.492188 -1.1875 4.96875 -1.804688 4.96875 -3.046875 C 4.96875 -3.691406 4.84375 -4.164062 4.59375 -4.46875 C 4.351562 -4.769531 4.003906 -4.921875 3.546875 -4.921875 C 2.597656 -4.921875 2.125 -4.296875 2.125 -3.046875 C 2.125 -1.804688 2.597656 -1.1875 3.546875 -1.1875 Z M 3.546875 -1.1875 "/></g></g></g><g fill="#000000" fill-opacity="1"><g transform="translate(136.379891, 33.642917)"><g><path d="M 0.875 0 L 0.875 -6.09375 L 2.34375 -6.09375 L 2.34375 -5.203125 L 2.46875 -5.171875 C 2.84375 -5.867188 3.457031 -6.21875 4.3125 -6.21875 C 5.019531 -6.21875 5.535156 -6.023438 5.859375 -5.640625 C 6.191406 -5.253906 6.359375 -4.695312 6.359375 -3.96875 L 6.359375 0 L 4.828125 0 L 4.828125 -3.78125 C 4.828125 -4.1875 4.742188 -4.476562 4.578125 -4.65625 C 4.421875 -4.832031 4.164062 -4.921875 3.8125 -4.921875 C 3.363281 -4.921875 3.015625 -4.78125 2.765625 -4.5 C 2.523438 -4.21875 2.40625 -3.769531 2.40625 -3.15625 L 2.40625 0 Z M 0.875 0 "/></g></g></g><g fill="#ed1d24" fill-opacity="1"><g transform="translate(75.621107, 23.088132)"><g><path d="M 10.96875 1.773438 C 11.222656 1.773438 11.40625 1.589844 11.429688 1.335938 C 11.636719 -2.835938 11.820312 -5.828125 11.820312 -8.339844 C 11.820312 -10.53125 11.707031 -12.304688 11.40625 -14.242188 C 11.152344 -15.808594 10.601562 -16.683594 9.769531 -16.683594 C 8.109375 -16.683594 7.027344 -12.742188 6.429688 -10.277344 C 6.3125 -9.792969 6.246094 -9.402344 6.175781 -9.078125 C 5.992188 -10.921875 5.667969 -14.21875 4.078125 -14.21875 C 2.351562 -14.21875 2.027344 -10.644531 0.921875 -4.5625 C 0.945312 -7.257812 1.199219 -10.921875 1.9375 -15.992188 C 1.957031 -16.246094 1.796875 -16.453125 1.542969 -16.523438 C 1.289062 -16.546875 1.082031 -16.382812 1.015625 -16.128906 C 0.53125 -12.558594 0 -8.019531 0 -3.964844 C 0 -2.695312 0.046875 -1.519531 0.160156 -0.414062 C 0.183594 -0.160156 0.34375 0 0.597656 0 C 0.851562 0 1.035156 -0.113281 1.058594 -0.367188 C 2.257812 -6.566406 3.15625 -13.296875 4.054688 -13.296875 C 5.046875 -13.296875 5.460938 -7.628906 5.460938 -4.492188 C 5.460938 -3.871094 5.4375 -3.363281 5.414062 -2.996094 C 5.390625 -2.71875 5.621094 -2.488281 5.898438 -2.488281 C 6.152344 -2.488281 6.3125 -2.648438 6.335938 -2.902344 C 7.074219 -11.636719 9.011719 -15.832031 9.769531 -15.761719 C 9.933594 -15.738281 10.300781 -15.417969 10.507812 -14.101562 C 10.785156 -12.257812 10.921875 -10.554688 10.921875 -8.410156 C 10.921875 -6.015625 10.761719 -3.066406 10.507812 1.289062 C 10.484375 1.542969 10.667969 1.773438 10.921875 1.773438 Z M 10.96875 1.773438 "/></g></g></g><g fill="#ed1d24" fill-opacity="1"><g transform="translate(88.594082, 23.088132)"><g><path d="M -0.0703125 -3.273438 C 0.136719 -3.132812 0.367188 -3.066406 0.621094 -3.066406 C 1.476562 -3.066406 2.464844 -4.054688 2.996094 -4.910156 C 2.925781 -3.824219 3.433594 -3.066406 4.238281 -3.066406 C 5.160156 -3.066406 6.5 -4.054688 7.972656 -6.75 C 7.996094 -6.84375 8.019531 -6.914062 8.019531 -6.960938 C 8.019531 -7.144531 7.925781 -7.28125 7.765625 -7.375 C 7.71875 -7.398438 7.652344 -7.421875 7.558594 -7.421875 C 7.375 -7.421875 7.234375 -7.351562 7.144531 -7.191406 C 6.40625 -5.714844 5.046875 -4.007812 4.378906 -4.007812 C 4.125 -4.007812 3.988281 -4.21875 3.988281 -4.839844 C 3.988281 -5.140625 4.007812 -5.507812 4.101562 -5.96875 C 4.171875 -6.453125 4.261719 -6.9375 4.425781 -7.375 C 4.539062 -7.71875 4.332031 -8.019531 3.988281 -8.019531 C 3.824219 -8.019531 3.6875 -7.925781 3.570312 -7.742188 C 3.019531 -6.683594 2.121094 -4.929688 1.175781 -4.238281 C 0.96875 -4.078125 0.804688 -4.007812 0.644531 -4.007812 C 0.390625 -4.007812 0.277344 -4.195312 0.277344 -4.585938 C 0.277344 -5.785156 1.636719 -8.457031 4.101562 -8.457031 C 4.355469 -8.457031 4.5625 -8.664062 4.5625 -8.917969 C 4.5625 -9.171875 4.355469 -9.378906 4.101562 -9.378906 C 1.222656 -9.378906 -0.621094 -6.453125 -0.621094 -4.585938 C -0.621094 -4.007812 -0.4375 -3.527344 -0.0703125 -3.273438 Z M -0.0703125 -3.273438 "/></g></g></g><g fill="#ed1d24" fill-opacity="1"><g transform="translate(95.483815, 23.088132)"><g><path d="M 0.875 -3.296875 C 1.683594 -4.910156 3.25 -8.480469 4.148438 -8.480469 C 4.402344 -8.480469 4.5625 -8.226562 4.722656 -7.582031 C 5.253906 -5.09375 6.222656 -3.917969 7.421875 -3.917969 C 8.503906 -3.917969 9.769531 -4.886719 10.992188 -6.730469 C 11.039062 -6.796875 11.0625 -6.867188 11.0625 -6.960938 C 11.0625 -7.121094 10.992188 -7.257812 10.851562 -7.351562 C 10.785156 -7.398438 10.691406 -7.421875 10.601562 -7.421875 C 10.4375 -7.421875 10.300781 -7.398438 10.207031 -7.234375 C 9.332031 -5.945312 8.109375 -4.679688 7.210938 -4.863281 C 6.9375 -4.910156 6.660156 -5.117188 6.40625 -5.507812 C 5.4375 -7.027344 5.851562 -9.054688 4.402344 -9.355469 C 4.332031 -9.378906 4.238281 -9.378906 4.101562 -9.378906 C 2.835938 -9.378906 1.796875 -7.257812 1.058594 -5.738281 C 1.246094 -9.355469 1.359375 -13.433594 1.84375 -15.992188 C 1.914062 -16.246094 1.726562 -16.476562 1.476562 -16.546875 C 1.222656 -16.566406 1.015625 -16.40625 0.945312 -16.152344 C 0.390625 -12.949219 0.253906 -7.671875 0 -3.546875 C -0.0234375 -3.25 0.230469 -3.066406 0.484375 -3.066406 C 0.644531 -3.066406 0.785156 -3.132812 0.875 -3.296875 Z M 0.875 -3.296875 "/></g></g></g><g fill="#ed1d24" fill-opacity="1"><g transform="translate(105.415172, 23.088132)"><g><path d="M 0.714844 -3.042969 C 0.96875 -3.042969 1.105469 -3.15625 1.152344 -3.386719 C 1.773438 -5.785156 3.109375 -8.296875 3.433594 -8.480469 C 3.59375 -8.109375 3.546875 -6.796875 3.640625 -4.195312 C 3.664062 -3.941406 3.824219 -3.757812 4.078125 -3.757812 C 4.332031 -3.734375 4.492188 -3.871094 4.5625 -4.125 C 4.679688 -4.792969 5.253906 -6.75 5.738281 -7.421875 C 5.921875 -6.773438 6.058594 -4.792969 7.582031 -4.539062 C 7.652344 -4.539062 7.71875 -4.515625 7.8125 -4.515625 C 8.917969 -4.515625 9.976562 -5.785156 10.738281 -6.660156 C 10.808594 -6.730469 10.832031 -6.820312 10.832031 -6.9375 C 10.832031 -7.097656 10.761719 -7.210938 10.644531 -7.304688 C 10.578125 -7.375 10.484375 -7.421875 10.371094 -7.421875 C 10.207031 -7.421875 10.09375 -7.351562 10 -7.234375 C 8.710938 -5.578125 8.019531 -5.367188 7.71875 -5.4375 C 6.613281 -5.621094 6.960938 -7.8125 6.199219 -8.320312 C 6.082031 -8.410156 5.945312 -8.457031 5.785156 -8.457031 C 5.714844 -8.457031 5.644531 -8.457031 5.621094 -8.433594 C 5.230469 -8.339844 4.839844 -7.859375 4.492188 -7.003906 C 4.425781 -8.386719 4.449219 -9.171875 3.710938 -9.355469 C 3.617188 -9.378906 3.527344 -9.402344 3.433594 -9.402344 C 3.132812 -9.402344 2.742188 -9.261719 2.398438 -8.640625 C 1.9375 -7.878906 1.519531 -7.074219 1.175781 -6.269531 L 1.175781 -9.011719 C 1.175781 -9.261719 0.96875 -9.472656 0.714844 -9.472656 C 0.460938 -9.472656 0.253906 -9.261719 0.253906 -9.011719 L 0.253906 -3.503906 C 0.253906 -3.25 0.460938 -3.042969 0.714844 -3.042969 Z M 0.714844 -3.042969 "/></g></g></g><g fill="#ed1d24" fill-opacity="1"><g transform="translate(115.116104, 23.088132)"><g><path d="M 1.542969 -2.835938 C 2.765625 -2.835938 3.640625 -4.425781 4.125 -5.53125 C 4.238281 -4.355469 4.746094 -3.59375 5.554688 -3.59375 C 6.382812 -3.59375 7.488281 -4.425781 8.664062 -6.519531 C 8.6875 -6.566406 8.710938 -6.636719 8.710938 -6.75 C 8.710938 -6.9375 8.640625 -7.074219 8.480469 -7.167969 C 8.433594 -7.191406 8.363281 -7.210938 8.25 -7.210938 C 8.042969 -7.210938 7.925781 -7.144531 7.859375 -6.980469 C 6.707031 -4.910156 5.808594 -4.378906 5.4375 -4.5625 C 5.09375 -4.722656 5.023438 -5.507812 5.023438 -6.359375 C 5.023438 -7.257812 5.117188 -8.179688 5.140625 -8.527344 C 5.140625 -8.78125 4.929688 -9.011719 4.679688 -9.011719 C 4.449219 -9.011719 4.285156 -8.894531 4.21875 -8.664062 C 3.546875 -5.898438 2.304688 -3.734375 1.589844 -3.734375 C 1.246094 -3.734375 1.058594 -4.21875 1.035156 -5.160156 C 1.035156 -6.246094 1.222656 -7.488281 1.382812 -8.15625 C 1.429688 -8.457031 1.3125 -8.640625 1.015625 -8.710938 C 0.714844 -8.757812 0.53125 -8.640625 0.460938 -8.339844 C 0.300781 -7.511719 0.113281 -6.359375 0.113281 -5.324219 C 0.113281 -3.964844 0.4375 -2.835938 1.542969 -2.835938 Z M 1.542969 -2.835938 "/></g></g></g><g fill="#ed1d24" fill-opacity="1"><g transform="translate(122.789287, 23.088132)"><g><path d="M 6.820312 0 C 7.074219 -0.0234375 7.234375 -0.207031 7.234375 -0.460938 L 7.234375 -0.507812 C 6.9375 -3.203125 6.820312 -6.589844 6.820312 -9.539062 L 6.820312 -10.921875 C 7.121094 -12.144531 7.605469 -14.285156 7.605469 -15.394531 C 7.605469 -15.855469 7.535156 -16.152344 7.398438 -16.316406 C 7.28125 -16.476562 7.097656 -16.566406 6.890625 -16.566406 C 6.730469 -16.566406 6.589844 -16.5 6.5 -16.382812 C 5.96875 -15.785156 5.898438 -11.984375 5.898438 -11.039062 C 5.324219 -8.617188 4.492188 -6.3125 2.558594 -4.585938 C 2.097656 -4.171875 1.707031 -3.964844 1.359375 -3.964844 C 0.875 -3.964844 0.621094 -4.425781 0.621094 -5.070312 C 0.621094 -6.476562 1.773438 -8.570312 4.261719 -8.503906 C 4.515625 -8.480469 4.722656 -8.6875 4.722656 -8.941406 C 4.746094 -9.195312 4.539062 -9.402344 4.285156 -9.425781 C 1.289062 -9.492188 -0.300781 -7.003906 -0.300781 -5.070312 C -0.300781 -3.964844 0.253906 -3.066406 1.382812 -3.066406 C 3.226562 -3.066406 5.183594 -6.152344 5.898438 -7.902344 C 5.96875 -5.140625 6.058594 -2.511719 6.3125 -0.414062 C 6.335938 -0.136719 6.5 0 6.773438 0 Z M 6.820312 0 "/></g></g></g><g fill="#ed1d24" fill-opacity="1"><g transform="translate(131.153746, 23.088132)"><g><path d="M 1.542969 -2.835938 C 2.765625 -2.835938 3.640625 -4.425781 4.125 -5.53125 C 4.238281 -4.355469 4.746094 -3.59375 5.554688 -3.59375 C 6.382812 -3.59375 7.488281 -4.425781 8.664062 -6.519531 C 8.6875 -6.566406 8.710938 -6.636719 8.710938 -6.75 C 8.710938 -6.9375 8.640625 -7.074219 8.480469 -7.167969 C 8.433594 -7.191406 8.363281 -7.210938 8.25 -7.210938 C 8.042969 -7.210938 7.925781 -7.144531 7.859375 -6.980469 C 6.707031 -4.910156 5.808594 -4.378906 5.4375 -4.5625 C 5.09375 -4.722656 5.023438 -5.507812 5.023438 -6.359375 C 5.023438 -7.257812 5.117188 -8.179688 5.140625 -8.527344 C 5.140625 -8.78125 4.929688 -9.011719 4.679688 -9.011719 C 4.449219 -9.011719 4.285156 -8.894531 4.21875 -8.664062 C 3.546875 -5.898438 2.304688 -3.734375 1.589844 -3.734375 C 1.246094 -3.734375 1.058594 -4.21875 1.035156 -5.160156 C 1.035156 -6.246094 1.222656 -7.488281 1.382812 -8.15625 C 1.429688 -8.457031 1.3125 -8.640625 1.015625 -8.710938 C 0.714844 -8.757812 0.53125 -8.640625 0.460938 -8.339844 C 0.300781 -7.511719 0.113281 -6.359375 0.113281 -5.324219 C 0.113281 -3.964844 0.4375 -2.835938 1.542969 -2.835938 Z M 1.542969 -2.835938 "/></g></g></g><g clip-path="url(#f18d0bff1a)"><g fill="#ed1d24" fill-opacity="1"><g transform="translate(138.826928, 23.088132)"><g><path d="M 2.097656 -3.066406 C 3.527344 -3.066406 5.09375 -5.53125 5.761719 -6.75 C 5.785156 -6.796875 5.808594 -6.867188 5.808594 -6.980469 C 5.808594 -7.167969 5.738281 -7.304688 5.578125 -7.398438 C 5.484375 -7.421875 5.414062 -7.441406 5.367188 -7.441406 C 5.183594 -7.441406 5.046875 -7.351562 4.953125 -7.191406 C 4.101562 -5.667969 2.8125 -3.988281 2.121094 -3.988281 C 2.050781 -3.988281 2.003906 -4.007812 1.9375 -4.03125 C 1.636719 -4.21875 1.152344 -4.492188 1.152344 -6.613281 C 1.152344 -8.527344 1.542969 -11.542969 2.441406 -15.96875 C 2.488281 -16.269531 2.375 -16.453125 2.074219 -16.523438 C 1.820312 -16.589844 1.613281 -16.40625 1.542969 -16.152344 C 0.992188 -13.363281 0.230469 -9.585938 0.230469 -6.820312 C 0.230469 -4.632812 0.691406 -3.066406 2.097656 -3.066406 Z M 2.097656 -3.066406 "/></g></g></g></g></svg>