<svg xmlns="http://www.w3.org/2000/svg" xmlns:xlink="http://www.w3.org/1999/xlink" width="196" zoomAndPan="magnify" viewBox="0 0 375 374.999991" height="64" preserveAspectRatio="xMidYMid meet" version="1.0"><defs><filter x="0%" y="0%" width="100%" height="100%" id="90393a64fe"><feColorMatrix values="0 0 0 0 1 0 0 0 0 1 0 0 0 0 1 0 0 0 1 0" color-interpolation-filters="sRGB"/></filter><g/><mask id="e642055ee7"><g filter="url(#90393a64fe)"><rect x="-37.5" width="450" fill="#000000" y="-37.499999" height="449.999989" fill-opacity="0.33"/></g></mask><clipPath id="b3ed9c5dc9"><path d="M 0.902344 1.042969 L 70 1.042969 L 70 36.664062 L 0.902344 36.664062 Z M 0.902344 1.042969 " clip-rule="nonzero"/></clipPath><clipPath id="9253ddc7f1"><rect x="0" width="70" y="0" height="37"/></clipPath></defs><g mask="url(#e642055ee7)"><g transform="matrix(1, 0, 0, 1, 305, 147)"><g clip-path="url(#9253ddc7f1)"><g clip-path="url(#b3ed9c5dc9)"><path fill="#235cdf" d="M 0.902344 1.042969 L 70 1.042969 L 70 36.664062 L 0.902344 36.664062 Z M 0.902344 1.042969 " fill-opacity="1" fill-rule="nonzero"/></g></g></g></g><path stroke-linecap="butt" transform="matrix(0, -0.74398, 0.75, 0, 199.055543, 197.51817)" fill="none" stroke-linejoin="miter" d="M -0.00182938 0.49886 L 56.467052 0.49886 " stroke="#000000" stroke-width="1" stroke-opacity="1" stroke-miterlimit="4"/><g fill="#000000" fill-opacity="1"><g transform="translate(111.420628, 192.660955)"><g><path d="M 10.21875 0 L 4.265625 0 L 4.265625 -32.84375 L 12.765625 -32.84375 L 21.0625 -8.6875 L 21.546875 -8.6875 L 29.8125 -32.84375 L 38.09375 -32.84375 L 38.09375 0 L 31.9375 0 L 31.9375 -21.703125 L 31.375 -21.78125 L 23.78125 0 L 18.375 0 L 10.78125 -21.78125 L 10.21875 -21.703125 Z M 10.21875 0 "/></g></g></g><g fill="#000000" fill-opacity="1"><g transform="translate(137.393476, 192.943492)"><g><path d="M 25.46875 -20.484375 L 25.46875 -32.84375 L 31.9375 -32.84375 L 31.9375 0 L 25.46875 0 L 25.46875 -14.953125 L 10.765625 -14.953125 L 10.765625 0 L 4.265625 0 L 4.265625 -32.84375 L 10.765625 -32.84375 L 10.765625 -20.484375 Z M 25.46875 -20.484375 "/></g></g></g><g fill="#000000" fill-opacity="1"><g transform="translate(158.567968, 193.3072)"><g><path d="M 10.453125 0 L 4.359375 0 L 4.359375 -33.578125 L 13.046875 -33.578125 L 21.546875 -8.890625 L 22.015625 -8.890625 L 30.46875 -33.578125 L 38.953125 -33.578125 L 38.953125 0 L 32.65625 0 L 32.65625 -22.1875 L 32.078125 -22.28125 L 24.3125 0 L 18.78125 0 L 11.015625 -22.28125 L 10.453125 -22.1875 Z M 10.453125 0 "/></g></g></g><g fill="#000000" fill-opacity="1"><g transform="translate(201.446168, 193.545808)"><g><path d="M 12.1875 -9.796875 L 12.1875 -15.703125 L 15.28125 -15.703125 L 15.28125 0 L 12.1875 0 L 12.1875 -7.15625 L 5.140625 -7.15625 L 5.140625 0 L 2.046875 0 L 2.046875 -15.703125 L 5.140625 -15.703125 L 5.140625 -9.796875 Z M 12.1875 -9.796875 "/></g></g></g><g fill="#000000" fill-opacity="1"><g transform="translate(218.770244, 193.545808)"><g><path d="M 4.625 0.21875 C 3.863281 0.21875 3.203125 0.0820312 2.640625 -0.1875 C 2.085938 -0.46875 1.660156 -0.878906 1.359375 -1.421875 C 1.054688 -1.960938 0.90625 -2.613281 0.90625 -3.375 C 0.90625 -4.070312 1.054688 -4.660156 1.359375 -5.140625 C 1.660156 -5.617188 2.125 -6.007812 2.75 -6.3125 C 3.382812 -6.613281 4.207031 -6.847656 5.21875 -7.015625 C 5.925781 -7.128906 6.460938 -7.253906 6.828125 -7.390625 C 7.203125 -7.523438 7.453125 -7.675781 7.578125 -7.84375 C 7.710938 -8.019531 7.78125 -8.242188 7.78125 -8.515625 C 7.78125 -8.890625 7.644531 -9.175781 7.375 -9.375 C 7.113281 -9.570312 6.675781 -9.671875 6.0625 -9.671875 C 5.40625 -9.671875 4.773438 -9.523438 4.171875 -9.234375 C 3.578125 -8.941406 3.0625 -8.554688 2.625 -8.078125 L 2.421875 -8.078125 L 1.171875 -9.953125 C 1.773438 -10.617188 2.507812 -11.140625 3.375 -11.515625 C 4.238281 -11.890625 5.179688 -12.078125 6.203125 -12.078125 C 7.773438 -12.078125 8.910156 -11.742188 9.609375 -11.078125 C 10.316406 -10.410156 10.671875 -9.460938 10.671875 -8.234375 L 10.671875 -3.09375 C 10.671875 -2.5625 10.898438 -2.296875 11.359375 -2.296875 C 11.546875 -2.296875 11.722656 -2.328125 11.890625 -2.390625 L 12.046875 -2.359375 L 12.25 -0.28125 C 12.09375 -0.175781 11.863281 -0.0859375 11.5625 -0.015625 C 11.269531 0.0546875 10.953125 0.09375 10.609375 0.09375 C 9.898438 0.09375 9.34375 -0.0390625 8.9375 -0.3125 C 8.539062 -0.59375 8.257812 -1.019531 8.09375 -1.59375 L 7.859375 -1.625 C 7.285156 -0.394531 6.207031 0.21875 4.625 0.21875 Z M 5.5625 -2 C 6.25 -2 6.796875 -2.226562 7.203125 -2.6875 C 7.617188 -3.15625 7.828125 -3.800781 7.828125 -4.625 L 7.828125 -5.828125 L 7.625 -5.859375 C 7.445312 -5.722656 7.210938 -5.601562 6.921875 -5.5 C 6.628906 -5.40625 6.210938 -5.3125 5.671875 -5.21875 C 5.023438 -5.113281 4.5625 -4.929688 4.28125 -4.671875 C 4 -4.410156 3.859375 -4.039062 3.859375 -3.5625 C 3.859375 -3.050781 4.007812 -2.660156 4.3125 -2.390625 C 4.613281 -2.128906 5.03125 -2 5.5625 -2 Z M 5.5625 -2 "/></g></g></g><g fill="#000000" fill-opacity="1"><g transform="translate(231.261195, 193.545808)"><g><path d="M 5.546875 0.21875 C 4.734375 0.21875 3.988281 0.125 3.3125 -0.0625 C 2.644531 -0.25 2.070312 -0.507812 1.59375 -0.84375 C 1.113281 -1.175781 0.757812 -1.554688 0.53125 -1.984375 L 2.1875 -3.765625 L 2.421875 -3.765625 C 2.816406 -3.234375 3.28125 -2.835938 3.8125 -2.578125 C 4.351562 -2.316406 4.9375 -2.1875 5.5625 -2.1875 C 6.144531 -2.1875 6.582031 -2.285156 6.875 -2.484375 C 7.164062 -2.691406 7.3125 -2.992188 7.3125 -3.390625 C 7.3125 -3.679688 7.207031 -3.929688 7 -4.140625 C 6.789062 -4.347656 6.445312 -4.507812 5.96875 -4.625 L 4.40625 -5 C 3.226562 -5.28125 2.367188 -5.707031 1.828125 -6.28125 C 1.285156 -6.851562 1.015625 -7.582031 1.015625 -8.46875 C 1.015625 -9.207031 1.203125 -9.847656 1.578125 -10.390625 C 1.960938 -10.941406 2.492188 -11.359375 3.171875 -11.640625 C 3.859375 -11.929688 4.65625 -12.078125 5.5625 -12.078125 C 6.632812 -12.078125 7.519531 -11.921875 8.21875 -11.609375 C 8.914062 -11.304688 9.460938 -10.894531 9.859375 -10.375 L 8.265625 -8.65625 L 8.0625 -8.65625 C 7.726562 -9.03125 7.351562 -9.300781 6.9375 -9.46875 C 6.53125 -9.644531 6.070312 -9.734375 5.5625 -9.734375 C 4.382812 -9.734375 3.796875 -9.367188 3.796875 -8.640625 C 3.796875 -8.328125 3.90625 -8.070312 4.125 -7.875 C 4.34375 -7.6875 4.726562 -7.53125 5.28125 -7.40625 L 6.75 -7.09375 C 7.945312 -6.832031 8.820312 -6.414062 9.375 -5.84375 C 9.9375 -5.28125 10.21875 -4.519531 10.21875 -3.5625 C 10.21875 -2.800781 10.03125 -2.132812 9.65625 -1.5625 C 9.28125 -0.988281 8.742188 -0.546875 8.046875 -0.234375 C 7.347656 0.0664062 6.515625 0.21875 5.546875 0.21875 Z M 5.546875 0.21875 "/></g></g></g><g fill="#000000" fill-opacity="1"><g transform="translate(242.184065, 193.545808)"><g><path d="M 4.625 0.21875 C 3.863281 0.21875 3.203125 0.0820312 2.640625 -0.1875 C 2.085938 -0.46875 1.660156 -0.878906 1.359375 -1.421875 C 1.054688 -1.960938 0.90625 -2.613281 0.90625 -3.375 C 0.90625 -4.070312 1.054688 -4.660156 1.359375 -5.140625 C 1.660156 -5.617188 2.125 -6.007812 2.75 -6.3125 C 3.382812 -6.613281 4.207031 -6.847656 5.21875 -7.015625 C 5.925781 -7.128906 6.460938 -7.253906 6.828125 -7.390625 C 7.203125 -7.523438 7.453125 -7.675781 7.578125 -7.84375 C 7.710938 -8.019531 7.78125 -8.242188 7.78125 -8.515625 C 7.78125 -8.890625 7.644531 -9.175781 7.375 -9.375 C 7.113281 -9.570312 6.675781 -9.671875 6.0625 -9.671875 C 5.40625 -9.671875 4.773438 -9.523438 4.171875 -9.234375 C 3.578125 -8.941406 3.0625 -8.554688 2.625 -8.078125 L 2.421875 -8.078125 L 1.171875 -9.953125 C 1.773438 -10.617188 2.507812 -11.140625 3.375 -11.515625 C 4.238281 -11.890625 5.179688 -12.078125 6.203125 -12.078125 C 7.773438 -12.078125 8.910156 -11.742188 9.609375 -11.078125 C 10.316406 -10.410156 10.671875 -9.460938 10.671875 -8.234375 L 10.671875 -3.09375 C 10.671875 -2.5625 10.898438 -2.296875 11.359375 -2.296875 C 11.546875 -2.296875 11.722656 -2.328125 11.890625 -2.390625 L 12.046875 -2.359375 L 12.25 -0.28125 C 12.09375 -0.175781 11.863281 -0.0859375 11.5625 -0.015625 C 11.269531 0.0546875 10.953125 0.09375 10.609375 0.09375 C 9.898438 0.09375 9.34375 -0.0390625 8.9375 -0.3125 C 8.539062 -0.59375 8.257812 -1.019531 8.09375 -1.59375 L 7.859375 -1.625 C 7.285156 -0.394531 6.207031 0.21875 4.625 0.21875 Z M 5.5625 -2 C 6.25 -2 6.796875 -2.226562 7.203125 -2.6875 C 7.617188 -3.15625 7.828125 -3.800781 7.828125 -4.625 L 7.828125 -5.828125 L 7.625 -5.859375 C 7.445312 -5.722656 7.210938 -5.601562 6.921875 -5.5 C 6.628906 -5.40625 6.210938 -5.3125 5.671875 -5.21875 C 5.023438 -5.113281 4.5625 -4.929688 4.28125 -4.671875 C 4 -4.410156 3.859375 -4.039062 3.859375 -3.5625 C 3.859375 -3.050781 4.007812 -2.660156 4.3125 -2.390625 C 4.613281 -2.128906 5.03125 -2 5.5625 -2 Z M 5.5625 -2 "/></g></g></g><g fill="#000000" fill-opacity="1"><g transform="translate(254.675016, 193.545808)"><g><path d="M 1.703125 0 L 1.703125 -11.84375 L 4.5625 -11.84375 L 4.5625 -10.109375 L 4.796875 -10.0625 C 5.523438 -11.40625 6.71875 -12.078125 8.375 -12.078125 C 9.75 -12.078125 10.753906 -11.703125 11.390625 -10.953125 C 12.035156 -10.210938 12.359375 -9.128906 12.359375 -7.703125 L 12.359375 0 L 9.375 0 L 9.375 -7.34375 C 9.375 -8.125 9.21875 -8.6875 8.90625 -9.03125 C 8.59375 -9.382812 8.085938 -9.5625 7.390625 -9.5625 C 6.535156 -9.5625 5.867188 -9.285156 5.390625 -8.734375 C 4.921875 -8.179688 4.6875 -7.316406 4.6875 -6.140625 L 4.6875 0 Z M 1.703125 0 "/></g></g></g><g fill="#000000" fill-opacity="1"><g transform="translate(268.551457, 193.545808)"><g/></g></g><g fill="#000000" fill-opacity="1"><g transform="translate(273.739018, 193.545808)"><g><path d="M 4.890625 0 L 2.046875 0 L 2.046875 -15.703125 L 6.109375 -15.703125 L 10.078125 -4.15625 L 10.296875 -4.15625 L 14.25 -15.703125 L 18.21875 -15.703125 L 18.21875 0 L 15.28125 0 L 15.28125 -10.375 L 15 -10.421875 L 11.375 0 L 8.78125 0 L 5.15625 -10.421875 L 4.890625 -10.375 Z M 4.890625 0 "/></g></g></g><g fill="#000000" fill-opacity="1"><g transform="translate(294.005931, 193.545808)"><g><path d="M 6.890625 0.21875 C 5.722656 0.21875 4.703125 -0.015625 3.828125 -0.484375 C 2.953125 -0.960938 2.269531 -1.660156 1.78125 -2.578125 C 1.300781 -3.503906 1.0625 -4.617188 1.0625 -5.921875 C 1.0625 -7.222656 1.300781 -8.332031 1.78125 -9.25 C 2.269531 -10.175781 2.953125 -10.878906 3.828125 -11.359375 C 4.703125 -11.835938 5.722656 -12.078125 6.890625 -12.078125 C 8.046875 -12.078125 9.0625 -11.835938 9.9375 -11.359375 C 10.820312 -10.878906 11.503906 -10.175781 11.984375 -9.25 C 12.472656 -8.332031 12.71875 -7.222656 12.71875 -5.921875 C 12.71875 -4.617188 12.472656 -3.503906 11.984375 -2.578125 C 11.503906 -1.660156 10.820312 -0.960938 9.9375 -0.484375 C 9.0625 -0.015625 8.046875 0.21875 6.890625 0.21875 Z M 6.890625 -2.296875 C 8.722656 -2.296875 9.640625 -3.503906 9.640625 -5.921875 C 9.640625 -7.171875 9.40625 -8.085938 8.9375 -8.671875 C 8.46875 -9.253906 7.785156 -9.546875 6.890625 -9.546875 C 5.046875 -9.546875 4.125 -8.335938 4.125 -5.921875 C 4.125 -3.503906 5.046875 -2.296875 6.890625 -2.296875 Z M 6.890625 -2.296875 "/></g></g></g><g fill="#000000" fill-opacity="1"><g transform="translate(307.774969, 193.545808)"><g><path d="M 6.890625 0.21875 C 5.722656 0.21875 4.703125 -0.015625 3.828125 -0.484375 C 2.953125 -0.960938 2.269531 -1.660156 1.78125 -2.578125 C 1.300781 -3.503906 1.0625 -4.617188 1.0625 -5.921875 C 1.0625 -7.222656 1.300781 -8.332031 1.78125 -9.25 C 2.269531 -10.175781 2.953125 -10.878906 3.828125 -11.359375 C 4.703125 -11.835938 5.722656 -12.078125 6.890625 -12.078125 C 8.046875 -12.078125 9.0625 -11.835938 9.9375 -11.359375 C 10.820312 -10.878906 11.503906 -10.175781 11.984375 -9.25 C 12.472656 -8.332031 12.71875 -7.222656 12.71875 -5.921875 C 12.71875 -4.617188 12.472656 -3.503906 11.984375 -2.578125 C 11.503906 -1.660156 10.820312 -0.960938 9.9375 -0.484375 C 9.0625 -0.015625 8.046875 0.21875 6.890625 0.21875 Z M 6.890625 -2.296875 C 8.722656 -2.296875 9.640625 -3.503906 9.640625 -5.921875 C 9.640625 -7.171875 9.40625 -8.085938 8.9375 -8.671875 C 8.46875 -9.253906 7.785156 -9.546875 6.890625 -9.546875 C 5.046875 -9.546875 4.125 -8.335938 4.125 -5.921875 C 4.125 -3.503906 5.046875 -2.296875 6.890625 -2.296875 Z M 6.890625 -2.296875 "/></g></g></g><g fill="#000000" fill-opacity="1"><g transform="translate(321.544007, 193.545808)"><g><path d="M 1.703125 0 L 1.703125 -11.84375 L 4.5625 -11.84375 L 4.5625 -10.109375 L 4.796875 -10.0625 C 5.523438 -11.40625 6.71875 -12.078125 8.375 -12.078125 C 9.75 -12.078125 10.753906 -11.703125 11.390625 -10.953125 C 12.035156 -10.210938 12.359375 -9.128906 12.359375 -7.703125 L 12.359375 0 L 9.375 0 L 9.375 -7.34375 C 9.375 -8.125 9.21875 -8.6875 8.90625 -9.03125 C 8.59375 -9.382812 8.085938 -9.5625 7.390625 -9.5625 C 6.535156 -9.5625 5.867188 -9.285156 5.390625 -8.734375 C 4.921875 -8.179688 4.6875 -7.316406 4.6875 -6.140625 L 4.6875 0 Z M 1.703125 0 "/></g></g></g><g fill="#ed1d24" fill-opacity="1"><g transform="translate(203.830186, 181.023065)"><g><path d="M 19.039062 3.078125 C 19.480469 3.078125 19.796875 2.761719 19.839844 2.320312 C 20.199219 -4.917969 20.519531 -10.121094 20.519531 -14.480469 C 20.519531 -18.277344 20.320312 -21.359375 19.796875 -24.71875 C 19.359375 -27.4375 18.398438 -28.957031 16.957031 -28.957031 C 14.078125 -28.957031 12.199219 -22.117188 11.160156 -17.839844 C 10.960938 -17 10.839844 -16.320312 10.71875 -15.757812 C 10.398438 -18.957031 9.839844 -24.679688 7.078125 -24.679688 C 4.078125 -24.679688 3.519531 -18.480469 1.601562 -7.917969 C 1.640625 -12.597656 2.078125 -18.957031 3.359375 -27.757812 C 3.398438 -28.199219 3.121094 -28.558594 2.679688 -28.679688 C 2.238281 -28.71875 1.878906 -28.4375 1.761719 -28 C 0.921875 -21.796875 0 -13.917969 0 -6.878906 C 0 -4.679688 0.078125 -2.640625 0.28125 -0.71875 C 0.320312 -0.28125 0.601562 0 1.039062 0 C 1.480469 0 1.800781 -0.199219 1.839844 -0.640625 C 3.917969 -11.398438 5.480469 -23.078125 7.039062 -23.078125 C 8.757812 -23.078125 9.480469 -13.238281 9.480469 -7.800781 C 9.480469 -6.71875 9.4375 -5.839844 9.398438 -5.199219 C 9.359375 -4.71875 9.757812 -4.320312 10.238281 -4.320312 C 10.679688 -4.320312 10.960938 -4.601562 11 -5.039062 C 12.277344 -20.199219 15.640625 -27.476562 16.957031 -27.359375 C 17.238281 -27.316406 17.878906 -26.757812 18.238281 -24.476562 C 18.71875 -21.277344 18.957031 -18.320312 18.957031 -14.597656 C 18.957031 -10.4375 18.679688 -5.320312 18.238281 2.238281 C 18.199219 2.679688 18.519531 3.078125 18.957031 3.078125 Z M 19.039062 3.078125 "/></g></g></g><g fill="#ed1d24" fill-opacity="1"><g transform="translate(226.347946, 181.023065)"><g><path d="M -0.121094 -5.679688 C 0.238281 -5.441406 0.640625 -5.320312 1.078125 -5.320312 C 2.558594 -5.320312 4.28125 -7.039062 5.199219 -8.519531 C 5.078125 -6.640625 5.960938 -5.320312 7.359375 -5.320312 C 8.960938 -5.320312 11.277344 -7.039062 13.839844 -11.71875 C 13.878906 -11.878906 13.917969 -12 13.917969 -12.078125 C 13.917969 -12.398438 13.757812 -12.640625 13.480469 -12.800781 C 13.398438 -12.839844 13.277344 -12.878906 13.121094 -12.878906 C 12.800781 -12.878906 12.558594 -12.757812 12.398438 -12.480469 C 11.121094 -9.917969 8.757812 -6.960938 7.597656 -6.960938 C 7.160156 -6.960938 6.917969 -7.320312 6.917969 -8.398438 C 6.917969 -8.917969 6.960938 -9.558594 7.121094 -10.359375 C 7.238281 -11.199219 7.398438 -12.039062 7.679688 -12.800781 C 7.878906 -13.398438 7.519531 -13.917969 6.917969 -13.917969 C 6.640625 -13.917969 6.398438 -13.757812 6.199219 -13.4375 C 5.238281 -11.597656 3.679688 -8.558594 2.039062 -7.359375 C 1.679688 -7.078125 1.398438 -6.960938 1.121094 -6.960938 C 0.679688 -6.960938 0.480469 -7.28125 0.480469 -7.960938 C 0.480469 -10.039062 2.839844 -14.679688 7.121094 -14.679688 C 7.558594 -14.679688 7.917969 -15.039062 7.917969 -15.480469 C 7.917969 -15.917969 7.558594 -16.277344 7.121094 -16.277344 C 2.121094 -16.277344 -1.078125 -11.199219 -1.078125 -7.960938 C -1.078125 -6.960938 -0.761719 -6.121094 -0.121094 -5.679688 Z M -0.121094 -5.679688 "/></g></g></g><g fill="#ed1d24" fill-opacity="1"><g transform="translate(238.306758, 181.023065)"><g><path d="M 1.519531 -5.71875 C 2.917969 -8.519531 5.640625 -14.71875 7.199219 -14.71875 C 7.640625 -14.71875 7.917969 -14.277344 8.199219 -13.160156 C 9.121094 -8.839844 10.800781 -6.800781 12.878906 -6.800781 C 14.757812 -6.800781 16.957031 -8.480469 19.078125 -11.679688 C 19.160156 -11.800781 19.199219 -11.917969 19.199219 -12.078125 C 19.199219 -12.359375 19.078125 -12.597656 18.839844 -12.757812 C 18.71875 -12.839844 18.558594 -12.878906 18.398438 -12.878906 C 18.117188 -12.878906 17.878906 -12.839844 17.71875 -12.558594 C 16.199219 -10.320312 14.078125 -8.121094 12.519531 -8.441406 C 12.039062 -8.519531 11.558594 -8.878906 11.121094 -9.558594 C 9.4375 -12.199219 10.160156 -15.71875 7.640625 -16.238281 C 7.519531 -16.277344 7.359375 -16.277344 7.121094 -16.277344 C 4.917969 -16.277344 3.121094 -12.597656 1.839844 -9.960938 C 2.160156 -16.238281 2.359375 -23.320312 3.199219 -27.757812 C 3.320312 -28.199219 3 -28.597656 2.558594 -28.71875 C 2.121094 -28.757812 1.761719 -28.476562 1.640625 -28.039062 C 0.679688 -22.480469 0.441406 -13.320312 0 -6.160156 C -0.0390625 -5.640625 0.398438 -5.320312 0.839844 -5.320312 C 1.121094 -5.320312 1.359375 -5.441406 1.519531 -5.71875 Z M 1.519531 -5.71875 "/></g></g></g><g fill="#ed1d24" fill-opacity="1"><g transform="translate(255.54505, 181.023065)"><g><path d="M 1.238281 -5.28125 C 1.679688 -5.28125 1.917969 -5.480469 2 -5.878906 C 3.078125 -10.039062 5.398438 -14.398438 5.960938 -14.71875 C 6.238281 -14.078125 6.160156 -11.800781 6.320312 -7.28125 C 6.359375 -6.839844 6.640625 -6.519531 7.078125 -6.519531 C 7.519531 -6.480469 7.800781 -6.71875 7.917969 -7.160156 C 8.121094 -8.320312 9.121094 -11.71875 9.960938 -12.878906 C 10.28125 -11.757812 10.519531 -8.320312 13.160156 -7.878906 C 13.277344 -7.878906 13.398438 -7.839844 13.558594 -7.839844 C 15.480469 -7.839844 17.320312 -10.039062 18.640625 -11.558594 C 18.757812 -11.679688 18.796875 -11.839844 18.796875 -12.039062 C 18.796875 -12.320312 18.679688 -12.519531 18.480469 -12.679688 C 18.359375 -12.800781 18.199219 -12.878906 18 -12.878906 C 17.71875 -12.878906 17.519531 -12.757812 17.359375 -12.558594 C 15.117188 -9.679688 13.917969 -9.320312 13.398438 -9.4375 C 11.480469 -9.757812 12.078125 -13.558594 10.757812 -14.4375 C 10.558594 -14.597656 10.320312 -14.679688 10.039062 -14.679688 C 9.917969 -14.679688 9.800781 -14.679688 9.757812 -14.640625 C 9.078125 -14.480469 8.398438 -13.640625 7.800781 -12.160156 C 7.679688 -14.558594 7.71875 -15.917969 6.441406 -16.238281 C 6.28125 -16.277344 6.121094 -16.320312 5.960938 -16.320312 C 5.441406 -16.320312 4.757812 -16.078125 4.160156 -15 C 3.359375 -13.679688 2.640625 -12.277344 2.039062 -10.878906 L 2.039062 -15.640625 C 2.039062 -16.078125 1.679688 -16.4375 1.238281 -16.4375 C 0.800781 -16.4375 0.441406 -16.078125 0.441406 -15.640625 L 0.441406 -6.078125 C 0.441406 -5.640625 0.800781 -5.28125 1.238281 -5.28125 Z M 1.238281 -5.28125 "/></g></g></g><g fill="#ed1d24" fill-opacity="1"><g transform="translate(272.383382, 181.023065)"><g><path d="M 2.679688 -4.917969 C 4.800781 -4.917969 6.320312 -7.679688 7.160156 -9.597656 C 7.359375 -7.558594 8.238281 -6.238281 9.640625 -6.238281 C 11.078125 -6.238281 13 -7.679688 15.039062 -11.320312 C 15.078125 -11.398438 15.117188 -11.519531 15.117188 -11.71875 C 15.117188 -12.039062 15 -12.277344 14.71875 -12.4375 C 14.640625 -12.480469 14.519531 -12.519531 14.320312 -12.519531 C 13.960938 -12.519531 13.757812 -12.398438 13.640625 -12.121094 C 11.640625 -8.519531 10.078125 -7.597656 9.4375 -7.917969 C 8.839844 -8.199219 8.71875 -9.558594 8.71875 -11.039062 C 8.71875 -12.597656 8.878906 -14.199219 8.917969 -14.800781 C 8.917969 -15.238281 8.558594 -15.640625 8.121094 -15.640625 C 7.71875 -15.640625 7.441406 -15.4375 7.320312 -15.039062 C 6.160156 -10.238281 4 -6.480469 2.761719 -6.480469 C 2.160156 -6.480469 1.839844 -7.320312 1.800781 -8.960938 C 1.800781 -10.839844 2.121094 -13 2.398438 -14.160156 C 2.480469 -14.679688 2.28125 -15 1.761719 -15.117188 C 1.238281 -15.199219 0.921875 -15 0.800781 -14.480469 C 0.519531 -13.039062 0.199219 -11.039062 0.199219 -9.238281 C 0.199219 -6.878906 0.761719 -4.917969 2.679688 -4.917969 Z M 2.679688 -4.917969 "/></g></g></g><g fill="#ed1d24" fill-opacity="1"><g transform="translate(285.702061, 181.023065)"><g><path d="M 11.839844 0 C 12.277344 -0.0390625 12.558594 -0.359375 12.558594 -0.800781 L 12.558594 -0.878906 C 12.039062 -5.558594 11.839844 -11.4375 11.839844 -16.558594 L 11.839844 -18.957031 C 12.359375 -21.078125 13.199219 -24.796875 13.199219 -26.71875 C 13.199219 -27.519531 13.078125 -28.039062 12.839844 -28.316406 C 12.640625 -28.597656 12.320312 -28.757812 11.960938 -28.757812 C 11.679688 -28.757812 11.4375 -28.636719 11.277344 -28.4375 C 10.359375 -27.398438 10.238281 -20.796875 10.238281 -19.160156 C 9.238281 -14.960938 7.800781 -10.960938 4.441406 -7.960938 C 3.640625 -7.238281 2.960938 -6.878906 2.359375 -6.878906 C 1.519531 -6.878906 1.078125 -7.679688 1.078125 -8.800781 C 1.078125 -11.238281 3.078125 -14.878906 7.398438 -14.757812 C 7.839844 -14.71875 8.199219 -15.078125 8.199219 -15.519531 C 8.238281 -15.960938 7.878906 -16.320312 7.441406 -16.359375 C 2.238281 -16.480469 -0.519531 -12.160156 -0.519531 -8.800781 C -0.519531 -6.878906 0.441406 -5.320312 2.398438 -5.320312 C 5.601562 -5.320312 9 -10.679688 10.238281 -13.71875 C 10.359375 -8.917969 10.519531 -4.359375 10.960938 -0.71875 C 11 -0.238281 11.277344 0 11.757812 0 Z M 11.839844 0 "/></g></g></g><g fill="#ed1d24" fill-opacity="1"><g transform="translate(300.220618, 181.023065)"><g><path d="M 2.679688 -4.917969 C 4.800781 -4.917969 6.320312 -7.679688 7.160156 -9.597656 C 7.359375 -7.558594 8.238281 -6.238281 9.640625 -6.238281 C 11.078125 -6.238281 13 -7.679688 15.039062 -11.320312 C 15.078125 -11.398438 15.117188 -11.519531 15.117188 -11.71875 C 15.117188 -12.039062 15 -12.277344 14.71875 -12.4375 C 14.640625 -12.480469 14.519531 -12.519531 14.320312 -12.519531 C 13.960938 -12.519531 13.757812 -12.398438 13.640625 -12.121094 C 11.640625 -8.519531 10.078125 -7.597656 9.4375 -7.917969 C 8.839844 -8.199219 8.71875 -9.558594 8.71875 -11.039062 C 8.71875 -12.597656 8.878906 -14.199219 8.917969 -14.800781 C 8.917969 -15.238281 8.558594 -15.640625 8.121094 -15.640625 C 7.71875 -15.640625 7.441406 -15.4375 7.320312 -15.039062 C 6.160156 -10.238281 4 -6.480469 2.761719 -6.480469 C 2.160156 -6.480469 1.839844 -7.320312 1.800781 -8.960938 C 1.800781 -10.839844 2.121094 -13 2.398438 -14.160156 C 2.480469 -14.679688 2.28125 -15 1.761719 -15.117188 C 1.238281 -15.199219 0.921875 -15 0.800781 -14.480469 C 0.519531 -13.039062 0.199219 -11.039062 0.199219 -9.238281 C 0.199219 -6.878906 0.761719 -4.917969 2.679688 -4.917969 Z M 2.679688 -4.917969 "/></g></g></g><g fill="#ed1d24" fill-opacity="1"><g transform="translate(313.539298, 181.023065)"><g><path d="M 3.640625 -5.320312 C 6.121094 -5.320312 8.839844 -9.597656 10 -11.71875 C 10.039062 -11.800781 10.078125 -11.917969 10.078125 -12.121094 C 10.078125 -12.4375 9.960938 -12.679688 9.679688 -12.839844 C 9.519531 -12.878906 9.398438 -12.917969 9.320312 -12.917969 C 9 -12.917969 8.757812 -12.757812 8.597656 -12.480469 C 7.121094 -9.839844 4.878906 -6.917969 3.679688 -6.917969 C 3.558594 -6.917969 3.480469 -6.960938 3.359375 -7 C 2.839844 -7.320312 2 -7.800781 2 -11.480469 C 2 -14.800781 2.679688 -20.039062 4.238281 -27.71875 C 4.320312 -28.238281 4.121094 -28.558594 3.601562 -28.679688 C 3.160156 -28.796875 2.800781 -28.476562 2.679688 -28.039062 C 1.71875 -23.199219 0.398438 -16.640625 0.398438 -11.839844 C 0.398438 -8.039062 1.199219 -5.320312 3.640625 -5.320312 Z M 3.640625 -5.320312 "/></g></g></g></svg>